<svg id="Layer_1" data-name="Layer 1" xmlns="http://www.w3.org/2000/svg" viewBox="0 0 705.12 745.07"><defs><style>.cls-1{fill:#4d4d4d;}.cls-1,.cls-11,.cls-16,.cls-2,.cls-3,.cls-5,.cls-8{stroke:#000;}.cls-1,.cls-11,.cls-16,.cls-2,.cls-3,.cls-4,.cls-5,.cls-8,.cls-9{stroke-miterlimit:10;}.cls-12,.cls-2{fill:#342e30;}.cls-2,.cls-3,.cls-5{stroke-width:2px;}.cls-3,.cls-4{fill:#433d3f;}.cls-4,.cls-9{stroke:#1a1a1a;}.cls-4,.cls-8{stroke-width:3px;}.cls-16,.cls-5{fill:none;}.cls-6{fill:#f2f2f2;}.cls-7{fill:#0071bc;}.cls-9{fill:#cfefee;stroke-width:5px;}.cls-10{fill:#fff;}.cls-11{fill:#ccc;}.cls-13{fill:#e6e6e6;opacity:0.2;}.cls-14{fill:#333;}.cls-15{fill:#bae1ff;}</style></defs><title>Error_404(2)</title><path class="cls-1" d="M627.06,456c-1-7.65-2.37-15.3-3.86-22.79-4.44-22.48-9.41-45.78-4.1-68.07a48.7,48.7,0,0,0-14-3.46,2.33,2.33,0,0,0-1.38.17,2.41,2.41,0,0,0-.93,1.7c-4.74,22.43.48,45.61,4.89,68.11s7.91,46.35,0,67.86c-1.79,4.84-4.22,9.59-8.13,12.94-6,5.21-14.81,6.52-22.45,7.61q-3.3.48-6.6.91c-1.1.16-13,1.5-13,1.73,1.17-22.91,1-46-.09-68.82-.46-9.68-1.84-21.29-9.91-27.82-4.93-4-12-5.13-18-6.22-6.32-1.17-12.36-1.36-18.31,1.44-11.88,5.59-18.91,18.67-25.12,29.59A229.11,229.11,0,0,0,468,491.18c-2.2,6.55-4.8,13.54-5.64,20.41-.79,6.48,2,10.45,7.46,13.36,7.75,4.1,16.49,6.21,25.17,7.13,15,1.56,30.71-.5,45.67-2l.34,0a399.31,399.31,0,0,1-4.89,42.12c-2.84,16.35-7.25,32.73-15.59,47.21-7.75,13.51-19.93,26.95-36.07,29.54-1.56.25-3.26.07-4.83.22a6.32,6.32,0,0,1-.61-.22,80.05,80.05,0,0,1-10-5.3c-6.11-3.66-12-7.74-18.37-11a72.37,72.37,0,0,0-18.16-6.22c-3.27-.69-6.56-1.2-9.87-1.65-1-.13-8.31-.47-8.31-.47-1.55-.11.26-1.36.75-1.89,11.85-12.75,14.27-31.4,15.69-48.75,3.39-41.49,4.45-83.24,1.38-124.76-.28-3.82-.65-7.8-2.7-11-3.05-4.81-9-6.8-14.61-7.87a86.08,86.08,0,0,0-43.71,3c-8,2.72-15.85,6.81-20.9,13.56s-6.76,15.13-8.21,23.32c-6.37,35.88-9.44,72.54-6.14,108.84.82,9.08,2.1,18.32,6.11,26.53,3.23,6.63,8.95,11.59,15.23,15.24a72.58,72.58,0,0,0,10.11,4.82c2.82,1.11,6.06,1.16,8.67,2.82a8.28,8.28,0,0,1,.89.67c.27.24.07.51-.18.67a10.68,10.68,0,0,1-2,1,9.19,9.19,0,0,1-1,.34,4.2,4.2,0,0,1-1.1.26c-1.35.3-2.72.46-4.09.66q-32.78,4.76-65.52,9.59c-8.35,1.23-17.43,2.34-24.72-1.91-4.93-2.87-8.3-7.8-10.92-12.86-6.31-12.23-9.17-26-10.09-39.71s0-27.18,1-40.74a2.24,2.24,0,0,0,.44-.07c11.82-2.31,22.64-6.85,29-18,3.4-6,5.19-12.65,6.9-19.26,2.39-9.14,4.47-18.38,6.24-27.65a422.39,422.39,0,0,0,6.78-55.37,425.25,425.25,0,0,0-.56-54.84c-.18-2.46-15.86-2.95-15.89-3.33a422.2,422.2,0,0,1-3.73,95.77,419.12,419.12,0,0,1-9.9,46.52c-2.81,10.22-7.11,20.32-16.35,26.31-.43.27-.87.54-1.32.8,2.81-20.53,6.76-41,8.22-61.66a198.69,198.69,0,0,0,.24-26.28c-.36-5.83-.7-11.95-6.92-14.27s-15.89-5-22.42-2.08c-7.8,3.54-15.21,8.63-22.42,13.21A389.73,389.73,0,0,0,175,476.32q-10,8.4-19.43,17.5c-5.68,5.46-11.73,11-16,17.67s-6.85,15.4-3.33,23c2.65,5.74,7.93,8.58,13.74,10.34,15.87,4.82,33.45,5.69,49.92,6.11a201.77,201.77,0,0,0,27.26-1.45c5-.57,10-.94,15-1.41l.39,0,0,.11c-3.18,17.77-1.85,36.14,1.74,53.84,2.65,13,7.18,26.74,18,34.4C269,641.2,277.4,643,285.62,644c34.1,4.12,68.39-3.07,101.65-9.89,3.53-.74,7.07-1.48,10.59-2.27,2.79-.62,5.12-1.94,8.06-2.29l3.92-.53a108.25,108.25,0,0,1,11.06-1.16,37.58,37.58,0,0,1,14.78,2.69c7.38,2.83,13.47,7.71,20.25,11.62a79.81,79.81,0,0,0,8,4.07c10.77,4.71,24.74,8.26,36.5,6.14,12.43-2.26,22.87-11,30.24-20.85,17.35-23.26,22-53.65,24.79-81.77q1.08-10.71,1.73-21.52c11.73-1.37,23.44-2.93,35.14-4.59,5-.71,10.22-1,15-2.58,8.9-3,13.94-11.45,16.81-19.9C629.05,486.64,629,471.27,627.06,456Zm-375,15.13c-1,14.56-3.18,29-5.39,43.41-1.42,9.28-4.35,28.34-4.49,28.37-12.9,1.85-26,2.27-39,3a208.06,208.06,0,0,1-25.71.08c-7.78-.54-16.49-1.13-22.62-6.54-4.53-4-5.16-9.89-3.65-15.49,3.6-13.36,16.58-23.55,26.31-32.54a391,391,0,0,1,38-30.84q10.31-7.36,21.07-14c4.62-2.85,9.31-5.63,14-8.4a1.3,1.3,0,0,1,.58-.25c.64-.1.75.55.75,1.05,0,1.71.18,3.42.31,5.14s.15,3.36.27,5A202.92,202.92,0,0,1,252.09,471.1ZM404.41,613a36,36,0,0,1-8.78,8.54c-2.82,2-5.61,3.8-9,4.55-.28.06-.57.12-.86.16a18.93,18.93,0,0,1-5.59,0,23.27,23.27,0,0,1-5.24-1.41c-1.38-.56-5.72-3-11.42-8.61a37.89,37.89,0,0,1-8.09-12.84c-4-9.85-4.62-20.7-4.87-31.22,0-1.51-.06-3-.09-4.55a526.37,526.37,0,0,1,2.16-57.27q1.32-14.52,3.46-28.94c1.22-8.27,2.2-17,5.74-24.62C368,443.63,382,436.6,395.61,433.7A113.14,113.14,0,0,1,406.9,432a8,8,0,0,1,5,.82,6.79,6.79,0,0,1,2.54,3.15c1.81,4.17,1.74,9.06,2,13.52A791.92,791.92,0,0,1,415.2,564.2C413.88,580,414.11,599.52,404.41,613ZM541.33,524.7c-17.74,2.09-35.89,4.57-53.81,4.12A21.28,21.28,0,0,1,481,525c-6.22-5.92-1.29-17.13.79-24a228.26,228.26,0,0,1,20.53-47.56c4.2-7.31,8.59-14.84,14.32-21a35.47,35.47,0,0,1,7.25-6.09,25.73,25.73,0,0,1,6.5-3c.36-.1.73-.16,1.1-.24a12.78,12.78,0,0,1,2.11,1.59,20.6,20.6,0,0,1,2.69,3.55,32.65,32.65,0,0,1,3.51,9.06c1.64,6.79,1.72,13.8,1.91,20.74C542.35,480.18,542.55,502.49,541.33,524.7Z" transform="translate(-74.83 -37.63)"/><path class="cls-2" d="M1,67H704a0,0,0,0,1,0,0V318.35a15.9,15.9,0,0,1-15.9,15.9H16.9A15.9,15.9,0,0,1,1,318.35V67a0,0,0,0,1,0,0Z"/><rect class="cls-3" x="1.39" y="1" width="702.73" height="66"/><rect class="cls-4" x="42.9" y="75.75" width="618.96" height="187" rx="46.47" ry="46.47"/><path class="cls-5" d="M633,127.23" transform="translate(-74.83 -37.63)"/><path class="cls-5" d="M623.62,208.27" transform="translate(-74.83 -37.63)"/><path class="cls-6" d="M543.59,140.07V274.68c0,8.63-6,15.7-13.36,15.7H323.58c-7.35,0-13.36-7.07-13.36-15.7V140.07c0-8.63,6-15.69,13.36-15.69H530.23C537.58,124.38,543.59,131.44,543.59,140.07Z" transform="translate(-74.83 -37.63)"/><path class="cls-7" d="M543.59,140.07v25.36H310.22V140.07c0-8.63,6-15.69,13.36-15.69H530.23C537.58,124.38,543.59,131.44,543.59,140.07Z" transform="translate(-74.83 -37.63)"/><line class="cls-8" x1="261.99" y1="151.01" x2="442.15" y2="151.01"/><line class="cls-8" x1="261.99" y1="170.2" x2="442.15" y2="170.2"/><line class="cls-8" x1="261.99" y1="189.83" x2="442.15" y2="189.83"/><line class="cls-8" x1="261.99" y1="209.47" x2="442.15" y2="209.47"/><path class="cls-9" d="M150.59,206.88c0-44.3,19.83-80.25,44.34-80.5h89.19v161H194.93C170.42,287.13,150.59,251.18,150.59,206.88Z" transform="translate(-74.83 -37.63)"/><path d="M284.12,134.06v146.1a7.46,7.46,0,0,1-6,7.3c-1.61.11-3.25.15-4.9.15-44.72,0-81-36-81-80.5s36.25-80.51,81-80.51c1.65,0,3.29.05,4.9.15A7.47,7.47,0,0,1,284.12,134.06Z" transform="translate(-74.83 -37.63)"/><path class="cls-10" d="M284.12,176.1v62a3.16,3.16,0,0,1-2.54,3.1c-.69,0-1.38.07-2.08.07a34.17,34.17,0,1,1,0-68.34c.7,0,1.39,0,2.08.06A3.17,3.17,0,0,1,284.12,176.1Z" transform="translate(-74.83 -37.63)"/><path class="cls-11" d="M284.59,189v36.22a1.84,1.84,0,0,1-1.48,1.81c-.4,0-.81,0-1.22,0a20,20,0,1,1,0-39.92c.41,0,.82,0,1.22,0A1.84,1.84,0,0,1,284.59,189Z" transform="translate(-74.83 -37.63)"/><line class="cls-5" x1="117.43" y1="89" x2="118.38" y2="169.03"/><path class="cls-9" d="M703.59,207.11c0,44.3-19.82,80.25-44.33,80.49H570.07v-161h89.19C683.77,126.85,703.59,162.8,703.59,207.11Z" transform="translate(-74.83 -37.63)"/><path d="M569.59,255.41v-97a5,5,0,0,1,4-4.85c1.07-.07,2.16-.1,3.26-.1a53.46,53.46,0,1,1,0,106.92c-1.1,0-2.19,0-3.26-.1A5,5,0,0,1,569.59,255.41Z" transform="translate(-74.83 -37.63)"/><path class="cls-10" d="M570.07,237.9v-62a3.17,3.17,0,0,1,2.54-3.1c.68,0,1.38-.06,2.08-.06a34.17,34.17,0,1,1,0,68.34c-.7,0-1.4,0-2.08-.07A3.16,3.16,0,0,1,570.07,237.9Z" transform="translate(-74.83 -37.63)"/><path class="cls-11" d="M569.59,225V188.79a1.85,1.85,0,0,1,1.49-1.81c.4,0,.8,0,1.21,0a20,20,0,1,1,0,39.92c-.41,0-.81,0-1.21,0A1.85,1.85,0,0,1,569.59,225Z" transform="translate(-74.83 -37.63)"/><line class="cls-5" x1="557.43" y1="90" x2="554.76" y2="170.75"/><rect class="cls-12" x="15" y="26" width="675" height="43"/><path class="cls-13" d="M150.59,206.88c0-44.3,19.83-80.25,44.34-80.5h89.19v161H194.93C170.42,287.13,150.59,251.18,150.59,206.88Z" transform="translate(-74.83 -37.63)"/><polygon class="cls-13" points="157.61 247 173.61 247 201.12 91 185.12 91 157.61 247"/><polygon class="cls-13" points="134.61 247 142.61 247 170.12 91 162.12 91 134.61 247"/><polygon class="cls-13" points="147.61 247 151.61 247 179.12 91 175.12 91 147.61 247"/><path class="cls-13" d="M703.12,207.88c0,44.3-19.83,80.25-44.34,80.5H569.59v-161h89.19C683.29,127.63,703.12,163.58,703.12,207.88Z" transform="translate(-74.83 -37.63)"/><polygon class="cls-13" points="546.43 92.51 530.43 92.51 502.93 248.51 518.93 248.51 546.43 92.51"/><polygon class="cls-13" points="569.43 92.51 561.43 92.51 533.93 248.51 541.93 248.51 569.43 92.51"/><polygon class="cls-13" points="556.43 92.51 552.43 92.51 524.93 248.51 528.93 248.51 556.43 92.51"/><polygon class="cls-14" points="337.76 20.38 352.56 5.58 367.35 20.38 337.76 20.38"/><path class="cls-14" d="M427.39,43.74l13.89,13.89H413.5l13.89-13.89m0-1.06-15.7,15.7h31.4l-15.7-15.7Z" transform="translate(-74.83 -37.63)"/><path class="cls-1" d="M372.29,631" transform="translate(-74.83 -37.63)"/><path class="cls-1" d="M377.72,629.13" transform="translate(-74.83 -37.63)"/><line class="cls-1" x1="314.89" y1="587.5" x2="301.89" y2="591.5"/><path class="cls-15" d="M414.2,623.94" transform="translate(-74.83 -37.63)"/><line class="cls-16" x1="334.89" y1="591.5" x2="338.89" y2="586.5"/><line class="cls-16" x1="184.89" y1="499.5" x2="183.39" y2="508"/><line class="cls-16" x1="167.89" y1="503" x2="167.89" y2="510.5"/><line class="cls-16" x1="466.39" y1="487" x2="465.89" y2="492.5"/><line class="cls-16" x1="482.39" y1="485" x2="481.89" y2="490.5"/><path class="cls-10" d="M91,757.79v24.9h-8.3v-58.1h33.2v4.15H120v4.15h4.15v16.6H120v4.15h-4.15v4.15Zm0-24.9v16.6h20.75v-4.15h4.15V737h-4.15v-4.15Z" transform="translate(-74.83 -37.63)"/><path class="cls-10" d="M140.77,782.69h-8.3v-41.5h4.15V737h4.15v-4.15h4.15v-4.15h4.15v-4.15h8.3v4.15h4.15v4.15h4.15V737h4.15v4.15H174v41.5h-8.3v-16.6h-24.9Zm0-24.9h24.9V745.34h-4.15v-4.15h-4.15V737h-8.3v4.15h-4.15v4.15h-4.15Z" transform="translate(-74.83 -37.63)"/><path class="cls-10" d="M219.63,732.89h4.15v8.3h-8.3V737h-4.15v-4.15h-16.6V737h-4.15v33.2h4.15v4.15h16.6v-4.15h4.15V757.79H203v-8.3h20.75v24.9h-4.15v4.15h-4.15v4.15h-24.9v-4.15h-4.15v-4.15h-4.16v-41.5h4.16v-4.15h4.15v-4.15h24.9v4.15h4.15Z" transform="translate(-74.83 -37.63)"/><path class="cls-10" d="M273.58,724.59v8.3h-33.2v16.6h24.9v8.3h-24.9v16.6h33.2v8.3h-41.5v-58.1Z" transform="translate(-74.83 -37.63)"/><path class="cls-10" d="M340,749.49v33.2h-8.3v-58.1H340V737h4.15v4.15h4.15v4.15h4.15v4.15h4.15v4.15h4.15v4.15h4.15v-33.2h8.3v58.1h-8.3V770.24h-4.15v-4.15h-4.15v-4.15h-4.15v-4.15h-4.15v-4.15h-4.15v-4.15Z" transform="translate(-74.83 -37.63)"/><path class="cls-10" d="M389.79,728.74v-4.15H414.7v4.15h4.15v4.15H423v41.5h-4.15v4.15H414.7v4.15H389.79v-4.15h-4.15v-4.15h-4.15v-41.5h4.15v-4.15Zm20.76,4.15H393.94V737h-4.15v33.2h4.15v4.15h16.61v-4.15h4.15V737h-4.15Z" transform="translate(-74.83 -37.63)"/><path class="cls-10" d="M447.9,732.89H431.3v-8.3h41.5v8.3H456.2v49.8h-8.3Z" transform="translate(-74.83 -37.63)"/><path class="cls-10" d="M572.41,724.59v8.3h-33.2v16.6h24.9v8.3h-24.9v24.9h-8.3v-58.1Z" transform="translate(-74.83 -37.63)"/><path class="cls-10" d="M589,728.74v-4.15h24.91v4.15h4.15v4.15h4.15v41.5h-4.15v4.15h-4.15v4.15H589v-4.15h-4.15v-4.15h-4.15v-41.5h4.15v-4.15Zm20.75,4.15h-16.6V737H589v33.2h4.15v4.15h16.6v-4.15h4.16V737h-4.16Z" transform="translate(-74.83 -37.63)"/><path class="cls-10" d="M634.67,774.39h-4.15v-49.8h8.3v45.65H643v4.15h16.6v-4.15h4.15V724.59H672v49.8h-4.15v4.15h-4.15v4.15h-24.9v-4.15h-4.15Z" transform="translate(-74.83 -37.63)"/><path class="cls-10" d="M688.62,749.49v33.2h-8.3v-58.1h8.3V737h4.15v4.15h4.15v4.15h4.15v4.15h4.15v4.15h4.15v4.15h4.15v-33.2h8.31v58.1h-8.31V770.24h-4.15v-4.15h-4.15v-4.15h-4.15v-4.15h-4.15v-4.15h-4.15v-4.15Z" transform="translate(-74.83 -37.63)"/><path class="cls-10" d="M730.13,782.69v-58.1h33.2v4.15h4.15v4.15h4.15v41.5h-4.15v4.15h-4.15v4.15Zm8.3-49.8v41.5h20.75v-4.15h4.15V737h-4.15v-4.15Z" transform="translate(-74.83 -37.63)"/></svg>